<svg id="Layer_1" data-name="Layer 1" xmlns="http://www.w3.org/2000/svg" viewBox="0 0 188 81"><defs><style>.cls-1{fill:#fff;}</style></defs><title>Artboard 1</title><path class="cls-1" d="M182.487,75.478H5.4V5.407H182.487ZM0,0V81H188V0Z"/><path class="cls-1" d="M46.862,34.179q0,5.1-3.007,7.879T35.31,44.836H33V54.931H24.779V24.5H35.31q5.766,0,8.659,2.518A8.983,8.983,0,0,1,46.862,34.179ZM33,38.134h1.5a4.093,4.093,0,0,0,2.945-1.041,3.777,3.777,0,0,0,1.093-2.872q0-3.081-3.414-3.081H33Z"/><path class="cls-1" d="M80.184,39.674q0,7.68-3.767,11.676t-11.032,4q-7.16,0-10.979-4.017t-3.819-11.7q0-7.6,3.8-11.6t11.042-4.007q7.263,0,11.011,3.976T80.184,39.674Zm-20.939,0q0,8.826,6.14,8.825a5.276,5.276,0,0,0,4.631-2.144q1.509-2.143,1.509-6.681,0-4.559-1.529-6.733a5.22,5.22,0,0,0-4.569-2.175Q59.245,30.766,59.245,39.674Z"/><path class="cls-1" d="M118.543,54.931h-9.72l-2.914-13.259q-.209-.831-.656-3.309t-.655-4.142q-.168,1.353-.541,3.361t-.74,3.7q-.363,1.686-3.028,13.654h-9.72L83.035,24.5h7.929l3.31,15.257q1.123,5.056,1.54,8.054.272-2.123.969-5.765t1.3-6.036l2.685-11.51h7.619l2.6,11.51q.666,2.767,1.354,6.39t.915,5.411q.27-2.31,1.478-8.013l3.372-15.3h7.93Z"/><path class="cls-1" d="M128.47,51.475A3.81,3.81,0,0,1,129.6,48.52a4.72,4.72,0,0,1,3.3-1.04,4.442,4.442,0,0,1,3.164,1.04,3.869,3.869,0,0,1,1.1,2.955,3.79,3.79,0,0,1-1.134,2.925,4.437,4.437,0,0,1-3.133,1.051,4.753,4.753,0,0,1-3.247-1.041A3.694,3.694,0,0,1,128.47,51.475Z"/><path class="cls-1" d="M150.51,43.857V54.931h-8.221V24.5h9.97q12.405,0,12.405,8.991,0,5.288-5.162,8.18l8.867,13.259h-9.325l-6.452-11.074Zm0-6.181h1.541q4.308,0,4.308-3.809,0-3.142-4.225-3.143H150.51Z"/></svg>