<?xml version="1.0" encoding="utf-8"?>
<!-- Generator: Adobe Illustrator 23.0.6, SVG Export Plug-In . SVG Version: 6.00 Build 0)  -->
<svg version="1.1" id="Layer_1" xmlns="http://www.w3.org/2000/svg" xmlns:xlink="http://www.w3.org/1999/xlink" x="0px" y="0px"
	 width="188px" height="81px" viewBox="0 0 188 81" style="enable-background:new 0 0 188 81;" xml:space="preserve">
<style type="text/css">
	.st0{fill:#FFFFFF;}
</style>
<title>Artboard 1</title>
<path class="st0" d="M182.487,75.478H5.4V5.407h177.087V75.478z M0,0v81h188V0H0z"/>
<path class="st0" d="M46.862,34.179c0,3.4-1.002,6.026-3.007,7.879c-2.005,1.853-4.853,2.779-8.545,2.778H33v10.095h-8.221V24.5
	H35.31c3.844,0,6.73,0.839,8.659,2.518C45.963,28.847,47.025,31.478,46.862,34.179z M33,38.134h1.5
	c1.081,0.056,2.14-0.318,2.945-1.041c0.755-0.759,1.152-1.803,1.093-2.872c0-2.054-1.138-3.081-3.414-3.081H33V38.134z"/>
<path class="st0" d="M80.184,39.674c0,5.12-1.256,9.012-3.767,11.676c-2.511,2.664-6.189,3.997-11.032,4
	c-4.773,0-8.433-1.339-10.979-4.017c-2.546-2.678-3.819-6.578-3.819-11.7c0-5.067,1.267-8.933,3.8-11.6s6.214-4.002,11.042-4.007
	c4.842,0,8.512,1.325,11.011,3.976S80.187,34.543,80.184,39.674z M59.245,39.674c0,5.884,2.047,8.826,6.14,8.825
	c1.81,0.129,3.559-0.681,4.631-2.144c1.006-1.429,1.509-3.656,1.509-6.681c0-3.039-0.51-5.284-1.529-6.733
	c-1.046-1.464-2.773-2.286-4.569-2.175C61.306,30.766,59.245,33.735,59.245,39.674z"/>
<path class="st0" d="M118.543,54.931h-9.72l-2.914-13.259c-0.139-0.554-0.358-1.657-0.656-3.309
	c-0.298-1.652-0.516-3.033-0.655-4.142c-0.112,0.902-0.292,2.022-0.541,3.361c-0.249,1.339-0.495,2.572-0.74,3.7
	c-0.242,1.124-1.251,5.675-3.028,13.654h-9.72L83.035,24.5h7.929l3.31,15.257c0.749,3.371,1.262,6.055,1.54,8.054
	c0.181-1.415,0.504-3.337,0.969-5.765c0.465-2.428,0.898-4.44,1.3-6.036l2.685-11.51h7.619l2.6,11.51
	c0.444,1.845,0.895,3.975,1.354,6.39c0.459,2.415,0.764,4.219,0.915,5.411c0.18-1.54,0.673-4.211,1.478-8.013l3.372-15.3h7.93
	L118.543,54.931z"/>
<path class="st0" d="M128.47,51.475c-0.069-1.102,0.343-2.18,1.13-2.955c0.929-0.752,2.108-1.124,3.3-1.04
	c1.15-0.077,2.284,0.296,3.164,1.04c0.77,0.784,1.17,1.858,1.1,2.955c0.062,1.093-0.351,2.16-1.134,2.925
	c-0.87,0.741-1.992,1.117-3.133,1.051c-1.174,0.067-2.331-0.304-3.247-1.041C128.837,53.658,128.403,52.581,128.47,51.475z"/>
<path class="st0" d="M150.51,43.857v11.074h-8.221V24.5h9.97c8.27,0,12.405,2.997,12.405,8.991c0,3.525-1.721,6.252-5.162,8.18
	l8.867,13.259h-9.325l-6.452-11.074L150.51,43.857z M150.51,37.676h1.541c2.872,0,4.308-1.27,4.308-3.809
	c0-2.095-1.408-3.142-4.225-3.143h-1.624V37.676z"/>
</svg>
